<svg width="63" height="65" viewBox="0 0 63 65" fill="none" xmlns="http://www.w3.org/2000/svg">
<path d="M55.3617 0.280811C55.6333 0.448791 55.8575 0.68336 56.013 0.962278C56.1685 1.2412 56.2503 1.55522 56.2504 1.87457V58.125C56.2504 58.6223 56.0529 59.0992 55.7012 59.4508C55.3496 59.8025 54.8727 60 54.3754 60H43.1253C42.628 60 42.1511 59.8025 41.7995 59.4508C41.4478 59.0992 41.2503 58.6223 41.2503 58.125V52.4999H37.5003V58.125C37.5003 58.6223 37.3027 59.0992 36.9511 59.4508C36.5995 59.8025 36.1225 60 35.6253 60H1.87501C1.37773 60 0.900812 59.8025 0.549179 59.4508C0.197546 59.0992 0 58.6223 0 58.125V37.4998C0.000298677 37.1065 0.124306 36.7232 0.354471 36.4042C0.584636 36.0852 0.909299 35.8466 1.28251 35.7223L22.5002 28.6498V16.8747C22.5002 16.5268 22.597 16.1857 22.7798 15.8897C22.9626 15.5936 23.2241 15.3543 23.5352 15.1984L53.5354 0.198311C53.8215 0.0550814 54.1396 -0.0125304 54.4593 0.00191056C54.7789 0.0163515 55.0896 0.112365 55.3617 0.280811ZM22.5002 32.6023L3.75003 38.8498V56.25H22.5002V32.6023ZM26.2502 56.25H33.7502V50.6249C33.7502 50.1276 33.9478 49.6507 34.2994 49.2991C34.6511 48.9475 35.128 48.7499 35.6253 48.7499H43.1253C43.6226 48.7499 44.0995 48.9475 44.4512 49.2991C44.8028 49.6507 45.0003 50.1276 45.0003 50.6249V56.25H52.5004V4.90835L26.2502 18.0334V56.25Z" fill="#0C55C6"/>
<path d="M7.5 41.2502H11.25V45.0002H7.5V41.2502ZM15.0001 41.2502H18.7501V45.0002H15.0001V41.2502ZM7.5 48.7503H11.25V52.5003H7.5V48.7503ZM15.0001 48.7503H18.7501V52.5003H15.0001V48.7503ZM30.0002 33.7502H33.7502V37.5002H30.0002V33.7502ZM37.5002 33.7502H41.2502V37.5002H37.5002V33.7502ZM30.0002 41.2502H33.7502V45.0002H30.0002V41.2502ZM37.5002 41.2502H41.2502V45.0002H37.5002V41.2502ZM45.0003 33.7502H48.7503V37.5002H45.0003V33.7502ZM45.0003 41.2502H48.7503V45.0002H45.0003V41.2502ZM30.0002 26.2501H33.7502V30.0001H30.0002V26.2501ZM37.5002 26.2501H41.2502V30.0001H37.5002V26.2501ZM45.0003 26.2501H48.7503V30.0001H45.0003V26.2501ZM30.0002 18.7501H33.7502V22.5001H30.0002V18.7501ZM37.5002 18.7501H41.2502V22.5001H37.5002V18.7501ZM45.0003 18.7501H48.7503V22.5001H45.0003V18.7501ZM45.0003 11.25H48.7503V15H45.0003V11.25Z" fill="#0C55C6"/>
<path d="M50.5049 47.002H61.7549V47.9707H50.5049V47.002Z" fill="#05275A"/>
<path d="M62.3797 48.75H50.4172C50.2577 48.7477 50.1003 48.7132 49.9545 48.6485C49.8087 48.5837 49.6776 48.4901 49.5689 48.3733C49.4603 48.2565 49.3765 48.1189 49.3225 47.9688C49.2684 47.8187 49.2454 47.6592 49.2547 47.5C49.2539 47.1831 49.3735 46.8777 49.5894 46.6457C49.8052 46.4136 50.1011 46.2722 50.4172 46.25H62.3797C62.5455 46.25 62.7044 46.1842 62.8216 46.0669C62.9388 45.9497 63.0047 45.7908 63.0047 45.625C63.0047 45.4592 62.9388 45.3003 62.8216 45.1831C62.7044 45.0658 62.5455 45 62.3797 45H50.4172C49.7694 45.0227 49.1558 45.2961 48.7057 45.7625C48.2556 46.2289 48.0043 46.8518 48.0047 47.5C47.9984 47.602 47.9984 47.7043 48.0047 47.8062C47.9987 47.8561 47.9987 47.9064 48.0047 47.9562V62.5C48.0043 63.1482 48.2556 63.7711 48.7057 64.2375C49.1558 64.7039 49.7694 64.9773 50.4172 65H62.3797C62.5455 65 62.7044 64.9342 62.8216 64.8169C62.9388 64.6997 63.0047 64.5408 63.0047 64.375V49.4187C63.0051 49.2487 62.9406 49.0849 62.8245 48.9607C62.7084 48.8365 62.5494 48.7611 62.3797 48.75ZM61.7547 63.75H50.4172C50.1011 63.7278 49.8052 63.5864 49.5894 63.3543C49.3735 63.1223 49.2539 62.8169 49.2547 62.5V49.7188C49.6101 49.9148 50.0115 50.0119 50.4172 50H61.7547V63.75Z" fill="#05275A"/>
</svg>
